<?xml version="1.0" encoding="iso-8859-1"?>
<!-- Generator: Adobe Illustrator 29.8.2, SVG Export Plug-In . SVG Version: 9.03 Build 0)  -->
<svg version="1.1" id="Layer_1" xmlns="http://www.w3.org/2000/svg" xmlns:xlink="http://www.w3.org/1999/xlink" x="0px" y="0px"
	 width="1080px" height="1350px" viewBox="0 0 1080 1350" enable-background="new 0 0 1080 1350" xml:space="preserve">
<path fill="#B7282E" d="M302.026,1141.093l-0.463-0.574c-6.63,9.433-13.184,18.943-19.627,28.563
	c-17.586,26.058-34.664,52.603-50.33,80.581c-5.251,9.378-3.255,21.789,5.582,27.934c6.796,4.722,15.247,4.744,21.811,1.092
	c28.353-15.82,55.239-33.108,81.629-50.915c9.598-6.421,19.086-12.952,28.497-19.583c0.022-0.022,0.055-0.033,0.077-0.055
	c16.493-11.595,32.744-23.455,48.929-35.381c7.745-5.825,15.534-11.628,23.301-17.431c86.428-67.96,165.255-147.846,235.994-240.43
	c1.842-2.482,3.696-4.932,5.549-7.403c11.441-15.523,22.826-31.1,33.991-46.899c0.177-0.265,0.364-0.519,0.563-0.783l-0.011-0.011
	c6.939-9.83,13.791-19.726,20.531-29.754c17.619-26.026,34.73-52.536,50.473-80.415c5.307-9.389,3.31-21.822-5.538-27.978
	c-6.807-4.733-15.28-4.733-21.844-1.059c-28.276,15.898-55.129,33.241-81.474,51.069c-9.995,6.708-19.847,13.537-29.644,20.443
	l0.397,0.596C507.527,891.771,392.172,1008.406,302.026,1141.093z"/>
<path fill="#B7282E" d="M771.971,88.2c-27.851,15.725-54.33,32.824-80.314,50.418c-26.401,17.724-51.965,36.29-77.364,55.015
	c-25.175,18.95-50.734,37.518-75.052,57.324c-0.057,0.047-0.115,0.093-0.172,0.14c-9.661,7.876-23.346,8.107-33.004,0.227
	c-0.223-0.182-0.446-0.364-0.67-0.546c-24.29-19.838-49.81-38.447-74.982-57.396c-25.404-18.723-50.985-37.272-77.427-54.954
	c-26.348-17.777-53.205-35.044-81.522-50.857c-6.568-3.644-15.008-3.62-21.792,1.097c-8.823,6.135-10.83,18.532-5.576,27.907
	c15.653,27.932,32.713,54.451,50.27,80.476c17.685,26.437,36.234,52.018,54.954,77.424c18.95,25.173,37.559,50.691,57.396,74.983
	c0.135,0.166,0.27,0.331,0.405,0.497c7.797,9.558,7.797,23.183,0,32.741c-0.135,0.165-0.27,0.331-0.405,0.497
	c-19.84,24.29-38.447,49.81-57.396,74.982c-18.723,25.404-37.272,50.987-54.954,77.427c-17.777,26.35-35.044,53.205-50.857,81.522
	c-3.644,6.568-3.62,15.008,1.097,21.792c6.135,8.823,18.531,10.83,27.906,5.577c27.932-15.651,54.452-32.711,80.474-50.271
	c26.44-17.685,52.02-36.232,77.427-54.954c25.173-18.95,50.691-37.559,74.983-57.394c0.224-0.182,0.448-0.365,0.672-0.548
	c9.656-7.882,23.341-7.65,33.004,0.224c0.057,0.047,0.115,0.094,0.172,0.14c24.318,19.806,49.875,38.374,75.05,57.326
	c25.4,18.728,50.963,37.291,77.367,55.012c26.309,17.818,53.13,35.127,81.365,51.014c6.571,3.674,15.025,3.664,21.82-1.057
	c8.843-6.144,10.836-18.575,5.542-27.951c-15.725-27.851-32.824-54.33-50.418-80.314c-17.724-26.401-36.287-51.965-55.015-77.364
	c-18.949-25.175-37.518-50.734-57.324-75.053c-0.095-0.117-0.19-0.233-0.285-0.35c-7.968-9.753-7.969-23.507-0.002-33.26
	c0.095-0.116,0.19-0.232,0.284-0.349c19.806-24.319,38.374-49.875,57.326-75.05c18.728-25.4,37.291-50.963,55.012-77.367
	c17.818-26.309,35.124-53.128,51.014-81.365c3.674-6.571,3.664-15.025-1.057-21.82C793.778,84.899,781.348,82.906,771.971,88.2z"/>
<path fill="#B7282E" d="M195.648,939.578c-0.225,1.125-0.394,2.307-0.619,3.432c0.225-1.125,0.394-2.251,0.563-3.432H195.648z"/>
<g>
</g>
<g>
</g>
<g>
</g>
<g>
</g>
<g>
</g>
<g>
</g>
</svg>
